<svg version="1.1" id="Layer_1" xmlns="http://www.w3.org/2000/svg" x="0" y="0" viewBox="0 0 100 100" xml:space="preserve"><style>.st0{fill:#da95ad}</style><path class="st0" d="M52.2 45.3s-18.1-3.8-35.7 16.4C.4 80.1 21 94.3 46 80.8c0 0-20.3-5.1 6.2-35.5z"/><path class="st0" d="M63.1 12.6c6-.7 34.8-7.7 18.1 15.8 0 0-6.4 8.4-7 9.2-3.2 3.9-3.7 5-4 5.5-1.1 1.8-4.6 8.2 6.5 5.8 10.9-2.4 14.7-3.4 14.9-3.5-.8 1.2-18.6 29-18.6 29l-21.2.8c-12.1-2.4-10.7-7.3-10.2-9.2 1.1-4.9 14.7-24.1 14.7-24.1C62.2 30 44.5 35 40.9 35.8c-4.8 1.1-21.8 7.5-21.8 7.5l13.2-26.4"/></svg>