<!--?xml version="1.0" encoding="utf-8"?-->
<!-- Generator: Adobe Illustrator 22.0.1, SVG Export Plug-In . SVG Version: 6.00 Build 0)  -->
<svg version="1.1" id="Layer_1" xmlns="http://www.w3.org/2000/svg" xmlns:xlink="http://www.w3.org/1999/xlink" x="0px" y="0px" viewBox="0 0 100 100" style="" xml:space="preserve">
<style type="text/css">
	.st0{fill:none;stroke:#DA95AD;stroke-width:0.6;stroke-miterlimit:10;}
</style>
<path class="st0 kSgnJByg_0" d="M48.3,52.3c-0.3-0.2-0.5-0.4-0.7-0.7"></path>
<path class="st0 kSgnJByg_1" d="M51.5,47.6c-0.9-0.6-2.1-0.6-3,0c-0.3,0.2-0.6,0.5-0.8,0.8"></path>
<path class="st0 kSgnJByg_2" d="M47.8,53.2C47.8,53.1,47.7,53.1,47.8,53.2c-0.3-0.2-0.5-0.5-0.7-0.7"></path>
<path class="st0 kSgnJByg_3" d="M52,46.7c-1.7-1-3.9-0.6-5.1,1c-0.2,0.3-0.3,0.6-0.5,0.9"></path>
<path class="st0 kSgnJByg_4" d="M45,48.9c0.1-0.4,0.2-0.7,0.4-1.1c1.2-2.6,4.3-3.7,6.9-2.5c0.1,0,0.1,0.1,0.2,0.1"></path>
<path class="st0 kSgnJByg_5" d="M46.3,53.6c0.2,0.2,0.5,0.5,0.8,0.7"></path>
<path class="st0 kSgnJByg_6" d="M47.6,43.9c-1.7,0.7-3.1,2.1-3.8,4c-0.2,0.5-0.3,1-0.3,1.4"></path>
<path class="st0 kSgnJByg_7" d="M45.6,54.9c0.3,0.2,0.5,0.4,0.8,0.6"></path>
<path class="st0 kSgnJByg_8" d="M44.9,56.3c0.3,0.2,0.5,0.4,0.8,0.6"></path>
<path class="st0 kSgnJByg_9" d="M58.1,50.2c0-0.8-0.1-1.6-0.3-2.3"></path>
<path class="st0 kSgnJByg_10" d="M43.9,44.8c-0.8,0.9-1.3,2-1.7,3.2c-0.2,0.7-0.2,1.3-0.3,2"></path>
<path class="st0 kSgnJByg_11" d="M59.5,50.3c0-1.4-0.2-2.8-0.7-4"></path>
<path class="st0 kSgnJByg_12" d="M41.5,45.6c-0.4,0.8-0.7,1.6-0.9,2.5c-0.2,0.9-0.2,1.8-0.2,2.7"></path>
<path class="st0 kSgnJByg_13" d="M44.4,57.8c0.3,0.2,0.6,0.4,0.9,0.6"></path>
<path class="st0 kSgnJByg_14" d="M39.6,46.3c-0.2,0.6-0.4,1.2-0.5,1.9c-0.2,1.2-0.2,2.4,0,3.5"></path>
<path class="st0 kSgnJByg_15" d="M46.7,60.6c-0.9-0.3-1.8-0.7-2.5-1.2"></path>
<path class="st0 kSgnJByg_16" d="M61.1,50.1c0-1.8-0.4-3.5-1.2-5.1"></path>
<path class="st0 kSgnJByg_17" d="M37.8,46.9c-0.1,0.4-0.2,0.8-0.3,1.3c-0.2,1.5-0.1,3,0.2,4.4"></path>
<path class="st0 kSgnJByg_18" d="M55.3,61.5c-2.1,1-4.6,1.4-7.1,1c-1.4-0.2-2.6-0.6-3.8-1.2"></path>
<path class="st0 kSgnJByg_19" d="M60.9,43.6c1.1,1.8,1.7,3.9,1.7,6.1"></path>
<path class="st0 kSgnJByg_20" d="M46.5,63.7c0.6,0.1,1.2,0.3,1.8,0.4c3.8,0.5,7.4-0.6,10.2-2.7"></path>
<path class="st0 kSgnJByg_21" d="M61.9,42.3c1.3,2.1,2.1,4.5,2.2,7.1"></path>
<path class="st0 kSgnJByg_22" d="M38.8,41.4c-1.1,1.4-1.9,3-2.4,4.8"></path>
<path class="st0 kSgnJByg_23" d="M36.1,47.5c0,0.2-0.1,0.5-0.1,0.7c-0.2,1.9-0.1,3.8,0.4,5.5"></path>
<path class="st0 kSgnJByg_24" d="M36.1,47.5c0.1-0.5,0.2-0.9,0.3-1.3"></path>
<path class="st0 kSgnJByg_25" d="M60,60c1.4-1.4,2.6-3.2,3.3-5.2"></path>
<path class="st0 kSgnJByg_26" d="M62.8,41c1.6,2.3,2.6,5.1,2.8,8"></path>
<path class="st0 kSgnJByg_27" d="M65.6,51.2c0,0.1,0,0.3,0,0.4c-0.9,8.6-8.6,14.9-17.2,14c-1-0.1-2-0.3-2.9-0.6"></path>
<path class="st0 kSgnJByg_28" d="M43.2,35.9c2.6-1.2,5.5-1.8,8.5-1.5c0.3,0,0.7,0.1,1,0.2"></path>
<path class="st0 kSgnJByg_29" d="M40.8,37.3c-3.5,2.5-5.9,6.4-6.4,11.1c-0.2,2.3,0,4.6,0.7,6.6"></path>
<path class="st0 kSgnJByg_30" d="M67.2,48.8c0-0.1,0-0.1,0-0.2"></path>
<path class="st0 kSgnJByg_31" d="M67.2,48.8c0.1,0.9,0.1,1.8,0,2.8C66.3,61,57.9,68,48.4,67.2c-1.9-0.2-3.6-0.6-5.3-1.4"></path>
<path class="st0 kSgnJByg_32" d="M56.4,34c-1.5-0.6-3.1-1-4.8-1.2C42.1,32,33.7,39,32.8,48.4c-0.3,2.8,0.2,5.5,1.1,7.9"></path>
<path class="st0 kSgnJByg_33" d="M63.7,39.6c1.9,2.6,3.1,5.7,3.4,9"></path>
<path class="st0 kSgnJByg_34" d="M64.5,38.1c3,3.6,4.6,8.3,4.2,13.4c-0.8,10.3-9.9,18.1-20.2,17.2c-2.8-0.2-5.5-1.1-7.8-2.4"></path>
<path class="st0 kSgnJByg_35" d="M59.2,33.7c-2.3-1.3-4.9-2.2-7.7-2.4c-10.3-0.8-19.4,6.9-20.2,17.2C31,51.8,31.6,55,33,57.9"></path>
<path class="st0 kSgnJByg_36" d="M62.1,33.7c-3-2.2-6.7-3.7-10.7-3.9c-11.2-0.8-20.9,7.7-21.7,18.9c-0.3,4,0.6,7.9,2.5,11.2"></path>
<path class="st0 kSgnJByg_37" d="M65,36.3c3.6,4,5.7,9.3,5.3,15.1c-0.8,11.2-10.5,19.6-21.7,18.9c-4-0.3-7.6-1.7-10.6-3.9"></path>
<path class="st0 kSgnJByg_38" d="M34.2,65.2c3.7,3.8,8.7,6.3,14.4,6.7c12.1,0.7,22.4-8.4,23.2-20.5c0.7-12.1-8.4-22.4-20.5-23.2
	c-12.1-0.7-22.4,8.4-23.2,20.5c-0.3,5.3,1.3,10.2,4.1,14.2"></path>
<path transform="matrix(3.199137e-02 -0.9995 0.9995 3.199137e-02 -1.574 98.3748)" class="st0 kSgnJByg_39" d="M26.6,50A23.4,23.4 0,1,1 73.4,50A23.4,23.4 0,1,1 26.6,50"></path>
<path transform="matrix(2.248014e-02 -0.9997 0.9997 2.248014e-02 -1.1114 98.8633)" class="st0 kSgnJByg_40" d="M25,50A25,25 0,1,1 75,50A25,25 0,1,1 25,50"></path>
<path transform="matrix(2.161350e-02 -0.9998 0.9998 2.161350e-02 -1.069 98.9076)" class="st0 kSgnJByg_41" d="M23.5,50A26.5,26.5 0,1,1 76.5,50A26.5,26.5 0,1,1 23.5,50"></path>
<path transform="matrix(1.351313e-02 -0.9999 0.9999 1.351313e-02 -0.6711 99.3197)" class="st0 kSgnJByg_42" d="M21.9,50A28.1,28.1 0,1,1 78.1,50A28.1,28.1 0,1,1 21.9,50"></path>
<path transform="matrix(1.732371e-02 -0.9998 0.9998 1.732371e-02 -0.8587 99.1263)" class="st0 kSgnJByg_43" d="M20.3,50A29.7,29.6 0,1,1 79.7,50A29.7,29.6 0,1,1 20.3,50"></path>
<path transform="matrix(1.692478e-02 -0.9999 0.9999 1.692478e-02 -0.8391 99.1466)" class="st0 kSgnJByg_44" d="M18.8,50A31.2,31.2 0,1,1 81.2,50A31.2,31.2 0,1,1 18.8,50"></path>
<path transform="matrix(1.289715e-02 -0.9999 0.9999 1.289715e-02 -0.6407 99.351)" class="st0 kSgnJByg_45" d="M17.200000000000003,50A32.8,32.8 0,1,1 82.8,50A32.8,32.8 0,1,1 17.200000000000003,50"></path>
<path transform="matrix(9.558538e-03 -1 1 9.558538e-03 -0.4756 99.5198)" class="st0 kSgnJByg_46" d="M15.700000000000003,50A34.3,34.3 0,1,1 84.3,50A34.3,34.3 0,1,1 15.700000000000003,50"></path>
<path transform="matrix(1.045033e-02 -0.9999 0.9999 1.045033e-02 -0.5198 99.4747)" class="st0 kSgnJByg_47" d="M14.100000000000001,50A35.9,35.9 0,1,1 85.9,50A35.9,35.9 0,1,1 14.100000000000001,50"></path>
<path transform="matrix(7.006713e-03 -1 1 7.006713e-03 -0.3491 99.6484)" class="st0 kSgnJByg_48" d="M12.600000000000001,50A37.4,37.4 0,1,1 87.4,50A37.4,37.4 0,1,1 12.600000000000001,50"></path>
<path class="st0 kSgnJByg_49" d="M34.2,65.2c-0.9-0.6-1.6-1.4-1.9-2.3"></path>
<path class="st0 kSgnJByg_50" d="M58.1,50.2c-1.1-0.4-0.7-1.6-0.3-2.3"></path>
<path class="st0 kSgnJByg_51" d="M58.5,61.3l0.7,0c0,0,0.3-0.5,0.8-1.3"></path>
<style data-made-with="vivus-instant">.kSgnJByg_0{stroke-dasharray:1 3;stroke-dashoffset:2;animation:kSgnJByg_draw_0 3500ms ease-in-out 0ms infinite,kSgnJByg_fade 3500ms linear 0ms infinite;}.kSgnJByg_1{stroke-dasharray:5 7;stroke-dashoffset:6;animation:kSgnJByg_draw_1 3500ms ease-in-out 0ms infinite,kSgnJByg_fade 3500ms linear 0ms infinite;}.kSgnJByg_2{stroke-dasharray:2 4;stroke-dashoffset:3;animation:kSgnJByg_draw_2 3500ms ease-in-out 0ms infinite,kSgnJByg_fade 3500ms linear 0ms infinite;}.kSgnJByg_3{stroke-dasharray:7 9;stroke-dashoffset:8;animation:kSgnJByg_draw_3 3500ms ease-in-out 0ms infinite,kSgnJByg_fade 3500ms linear 0ms infinite;}.kSgnJByg_4{stroke-dasharray:10 12;stroke-dashoffset:11;animation:kSgnJByg_draw_4 3500ms ease-in-out 0ms infinite,kSgnJByg_fade 3500ms linear 0ms infinite;}.kSgnJByg_5{stroke-dasharray:2 4;stroke-dashoffset:3;animation:kSgnJByg_draw_5 3500ms ease-in-out 0ms infinite,kSgnJByg_fade 3500ms linear 0ms infinite;}.kSgnJByg_6{stroke-dasharray:8 10;stroke-dashoffset:9;animation:kSgnJByg_draw_6 3500ms ease-in-out 0ms infinite,kSgnJByg_fade 3500ms linear 0ms infinite;}.kSgnJByg_7{stroke-dasharray:2 4;stroke-dashoffset:3;animation:kSgnJByg_draw_7 3500ms ease-in-out 0ms infinite,kSgnJByg_fade 3500ms linear 0ms infinite;}.kSgnJByg_8{stroke-dasharray:2 4;stroke-dashoffset:3;animation:kSgnJByg_draw_8 3500ms ease-in-out 0ms infinite,kSgnJByg_fade 3500ms linear 0ms infinite;}.kSgnJByg_9{stroke-dasharray:3 5;stroke-dashoffset:4;animation:kSgnJByg_draw_9 3500ms ease-in-out 0ms infinite,kSgnJByg_fade 3500ms linear 0ms infinite;}.kSgnJByg_10{stroke-dasharray:6 8;stroke-dashoffset:7;animation:kSgnJByg_draw_10 3500ms ease-in-out 0ms infinite,kSgnJByg_fade 3500ms linear 0ms infinite;}.kSgnJByg_11{stroke-dasharray:5 7;stroke-dashoffset:6;animation:kSgnJByg_draw_11 3500ms ease-in-out 0ms infinite,kSgnJByg_fade 3500ms linear 0ms infinite;}.kSgnJByg_12{stroke-dasharray:6 8;stroke-dashoffset:7;animation:kSgnJByg_draw_12 3500ms ease-in-out 0ms infinite,kSgnJByg_fade 3500ms linear 0ms infinite;}.kSgnJByg_13{stroke-dasharray:2 4;stroke-dashoffset:3;animation:kSgnJByg_draw_13 3500ms ease-in-out 0ms infinite,kSgnJByg_fade 3500ms linear 0ms infinite;}.kSgnJByg_14{stroke-dasharray:6 8;stroke-dashoffset:7;animation:kSgnJByg_draw_14 3500ms ease-in-out 0ms infinite,kSgnJByg_fade 3500ms linear 0ms infinite;}.kSgnJByg_15{stroke-dasharray:3 5;stroke-dashoffset:4;animation:kSgnJByg_draw_15 3500ms ease-in-out 0ms infinite,kSgnJByg_fade 3500ms linear 0ms infinite;}.kSgnJByg_16{stroke-dasharray:6 8;stroke-dashoffset:7;animation:kSgnJByg_draw_16 3500ms ease-in-out 0ms infinite,kSgnJByg_fade 3500ms linear 0ms infinite;}.kSgnJByg_17{stroke-dasharray:6 8;stroke-dashoffset:7;animation:kSgnJByg_draw_17 3500ms ease-in-out 0ms infinite,kSgnJByg_fade 3500ms linear 0ms infinite;}.kSgnJByg_18{stroke-dasharray:12 14;stroke-dashoffset:13;animation:kSgnJByg_draw_18 3500ms ease-in-out 0ms infinite,kSgnJByg_fade 3500ms linear 0ms infinite;}.kSgnJByg_19{stroke-dasharray:7 9;stroke-dashoffset:8;animation:kSgnJByg_draw_19 3500ms ease-in-out 0ms infinite,kSgnJByg_fade 3500ms linear 0ms infinite;}.kSgnJByg_20{stroke-dasharray:13 15;stroke-dashoffset:14;animation:kSgnJByg_draw_20 3500ms ease-in-out 0ms infinite,kSgnJByg_fade 3500ms linear 0ms infinite;}.kSgnJByg_21{stroke-dasharray:8 10;stroke-dashoffset:9;animation:kSgnJByg_draw_21 3500ms ease-in-out 0ms infinite,kSgnJByg_fade 3500ms linear 0ms infinite;}.kSgnJByg_22{stroke-dasharray:6 8;stroke-dashoffset:7;animation:kSgnJByg_draw_22 3500ms ease-in-out 0ms infinite,kSgnJByg_fade 3500ms linear 0ms infinite;}.kSgnJByg_23{stroke-dasharray:7 9;stroke-dashoffset:8;animation:kSgnJByg_draw_23 3500ms ease-in-out 0ms infinite,kSgnJByg_fade 3500ms linear 0ms infinite;}.kSgnJByg_24{stroke-dasharray:2 4;stroke-dashoffset:3;animation:kSgnJByg_draw_24 3500ms ease-in-out 0ms infinite,kSgnJByg_fade 3500ms linear 0ms infinite;}.kSgnJByg_25{stroke-dasharray:7 9;stroke-dashoffset:8;animation:kSgnJByg_draw_25 3500ms ease-in-out 0ms infinite,kSgnJByg_fade 3500ms linear 0ms infinite;}.kSgnJByg_26{stroke-dasharray:9 11;stroke-dashoffset:10;animation:kSgnJByg_draw_26 3500ms ease-in-out 0ms infinite,kSgnJByg_fade 3500ms linear 0ms infinite;}.kSgnJByg_27{stroke-dasharray:28 30;stroke-dashoffset:29;animation:kSgnJByg_draw_27 3500ms ease-in-out 0ms infinite,kSgnJByg_fade 3500ms linear 0ms infinite;}.kSgnJByg_28{stroke-dasharray:10 12;stroke-dashoffset:11;animation:kSgnJByg_draw_28 3500ms ease-in-out 0ms infinite,kSgnJByg_fade 3500ms linear 0ms infinite;}.kSgnJByg_29{stroke-dasharray:20 22;stroke-dashoffset:21;animation:kSgnJByg_draw_29 3500ms ease-in-out 0ms infinite,kSgnJByg_fade 3500ms linear 0ms infinite;}.kSgnJByg_30{stroke-dasharray:1 3;stroke-dashoffset:2;animation:kSgnJByg_draw_30 3500ms ease-in-out 0ms infinite,kSgnJByg_fade 3500ms linear 0ms infinite;}.kSgnJByg_31{stroke-dasharray:36 38;stroke-dashoffset:37;animation:kSgnJByg_draw_31 3500ms ease-in-out 0ms infinite,kSgnJByg_fade 3500ms linear 0ms infinite;}.kSgnJByg_32{stroke-dasharray:41 43;stroke-dashoffset:42;animation:kSgnJByg_draw_32 3500ms ease-in-out 0ms infinite,kSgnJByg_fade 3500ms linear 0ms infinite;}.kSgnJByg_33{stroke-dasharray:10 12;stroke-dashoffset:11;animation:kSgnJByg_draw_33 3500ms ease-in-out 0ms infinite,kSgnJByg_fade 3500ms linear 0ms infinite;}.kSgnJByg_34{stroke-dasharray:53 55;stroke-dashoffset:54;animation:kSgnJByg_draw_34 3500ms ease-in-out 0ms infinite,kSgnJByg_fade 3500ms linear 0ms infinite;}.kSgnJByg_35{stroke-dasharray:48 50;stroke-dashoffset:49;animation:kSgnJByg_draw_35 3500ms ease-in-out 0ms infinite,kSgnJByg_fade 3500ms linear 0ms infinite;}.kSgnJByg_36{stroke-dasharray:56 58;stroke-dashoffset:57;animation:kSgnJByg_draw_36 3500ms ease-in-out 0ms infinite,kSgnJByg_fade 3500ms linear 0ms infinite;}.kSgnJByg_37{stroke-dasharray:60 62;stroke-dashoffset:61;animation:kSgnJByg_draw_37 3500ms ease-in-out 0ms infinite,kSgnJByg_fade 3500ms linear 0ms infinite;}.kSgnJByg_38{stroke-dasharray:135 137;stroke-dashoffset:136;animation:kSgnJByg_draw_38 3500ms ease-in-out 0ms infinite,kSgnJByg_fade 3500ms linear 0ms infinite;}.kSgnJByg_39{stroke-dasharray:148 150;stroke-dashoffset:149;animation:kSgnJByg_draw_39 3500ms ease-in-out 0ms infinite,kSgnJByg_fade 3500ms linear 0ms infinite;}.kSgnJByg_40{stroke-dasharray:158 160;stroke-dashoffset:159;animation:kSgnJByg_draw_40 3500ms ease-in-out 0ms infinite,kSgnJByg_fade 3500ms linear 0ms infinite;}.kSgnJByg_41{stroke-dasharray:167 169;stroke-dashoffset:168;animation:kSgnJByg_draw_41 3500ms ease-in-out 0ms infinite,kSgnJByg_fade 3500ms linear 0ms infinite;}.kSgnJByg_42{stroke-dasharray:177 179;stroke-dashoffset:178;animation:kSgnJByg_draw_42 3500ms ease-in-out 0ms infinite,kSgnJByg_fade 3500ms linear 0ms infinite;}.kSgnJByg_43{stroke-dasharray:187 189;stroke-dashoffset:188;animation:kSgnJByg_draw_43 3500ms ease-in-out 0ms infinite,kSgnJByg_fade 3500ms linear 0ms infinite;}.kSgnJByg_44{stroke-dasharray:197 199;stroke-dashoffset:198;animation:kSgnJByg_draw_44 3500ms ease-in-out 0ms infinite,kSgnJByg_fade 3500ms linear 0ms infinite;}.kSgnJByg_45{stroke-dasharray:207 209;stroke-dashoffset:208;animation:kSgnJByg_draw_45 3500ms ease-in-out 0ms infinite,kSgnJByg_fade 3500ms linear 0ms infinite;}.kSgnJByg_46{stroke-dasharray:216 218;stroke-dashoffset:217;animation:kSgnJByg_draw_46 3500ms ease-in-out 0ms infinite,kSgnJByg_fade 3500ms linear 0ms infinite;}.kSgnJByg_47{stroke-dasharray:226 228;stroke-dashoffset:227;animation:kSgnJByg_draw_47 3500ms ease-in-out 0ms infinite,kSgnJByg_fade 3500ms linear 0ms infinite;}.kSgnJByg_48{stroke-dasharray:236 238;stroke-dashoffset:237;animation:kSgnJByg_draw_48 3500ms ease-in-out 0ms infinite,kSgnJByg_fade 3500ms linear 0ms infinite;}.kSgnJByg_49{stroke-dasharray:4 6;stroke-dashoffset:5;animation:kSgnJByg_draw_49 3500ms ease-in-out 0ms infinite,kSgnJByg_fade 3500ms linear 0ms infinite;}.kSgnJByg_50{stroke-dasharray:3 5;stroke-dashoffset:4;animation:kSgnJByg_draw_50 3500ms ease-in-out 0ms infinite,kSgnJByg_fade 3500ms linear 0ms infinite;}.kSgnJByg_51{stroke-dasharray:3 5;stroke-dashoffset:4;animation:kSgnJByg_draw_51 3500ms ease-in-out 0ms infinite,kSgnJByg_fade 3500ms linear 0ms infinite;}@keyframes kSgnJByg_draw{100%{stroke-dashoffset:0;}}@keyframes kSgnJByg_fade{0%{stroke-opacity:1;}91.42857142857143%{stroke-opacity:1;}100%{stroke-opacity:0;}}@keyframes kSgnJByg_draw_0{5.714285714285714%{stroke-dashoffset: 2}62.857142857142854%{ stroke-dashoffset: 0;}100%{ stroke-dashoffset: 0;}}@keyframes kSgnJByg_draw_1{5.714285714285714%{stroke-dashoffset: 6}62.857142857142854%{ stroke-dashoffset: 0;}100%{ stroke-dashoffset: 0;}}@keyframes kSgnJByg_draw_2{5.714285714285714%{stroke-dashoffset: 3}62.857142857142854%{ stroke-dashoffset: 0;}100%{ stroke-dashoffset: 0;}}@keyframes kSgnJByg_draw_3{5.714285714285714%{stroke-dashoffset: 8}62.857142857142854%{ stroke-dashoffset: 0;}100%{ stroke-dashoffset: 0;}}@keyframes kSgnJByg_draw_4{5.714285714285714%{stroke-dashoffset: 11}62.857142857142854%{ stroke-dashoffset: 0;}100%{ stroke-dashoffset: 0;}}@keyframes kSgnJByg_draw_5{5.714285714285714%{stroke-dashoffset: 3}62.857142857142854%{ stroke-dashoffset: 0;}100%{ stroke-dashoffset: 0;}}@keyframes kSgnJByg_draw_6{5.714285714285714%{stroke-dashoffset: 9}62.857142857142854%{ stroke-dashoffset: 0;}100%{ stroke-dashoffset: 0;}}@keyframes kSgnJByg_draw_7{5.714285714285714%{stroke-dashoffset: 3}62.857142857142854%{ stroke-dashoffset: 0;}100%{ stroke-dashoffset: 0;}}@keyframes kSgnJByg_draw_8{5.714285714285714%{stroke-dashoffset: 3}62.857142857142854%{ stroke-dashoffset: 0;}100%{ stroke-dashoffset: 0;}}@keyframes kSgnJByg_draw_9{5.714285714285714%{stroke-dashoffset: 4}62.857142857142854%{ stroke-dashoffset: 0;}100%{ stroke-dashoffset: 0;}}@keyframes kSgnJByg_draw_10{5.714285714285714%{stroke-dashoffset: 7}62.857142857142854%{ stroke-dashoffset: 0;}100%{ stroke-dashoffset: 0;}}@keyframes kSgnJByg_draw_11{5.714285714285714%{stroke-dashoffset: 6}62.857142857142854%{ stroke-dashoffset: 0;}100%{ stroke-dashoffset: 0;}}@keyframes kSgnJByg_draw_12{5.714285714285714%{stroke-dashoffset: 7}62.857142857142854%{ stroke-dashoffset: 0;}100%{ stroke-dashoffset: 0;}}@keyframes kSgnJByg_draw_13{5.714285714285714%{stroke-dashoffset: 3}62.857142857142854%{ stroke-dashoffset: 0;}100%{ stroke-dashoffset: 0;}}@keyframes kSgnJByg_draw_14{5.714285714285714%{stroke-dashoffset: 7}62.857142857142854%{ stroke-dashoffset: 0;}100%{ stroke-dashoffset: 0;}}@keyframes kSgnJByg_draw_15{5.714285714285714%{stroke-dashoffset: 4}62.857142857142854%{ stroke-dashoffset: 0;}100%{ stroke-dashoffset: 0;}}@keyframes kSgnJByg_draw_16{5.714285714285714%{stroke-dashoffset: 7}62.857142857142854%{ stroke-dashoffset: 0;}100%{ stroke-dashoffset: 0;}}@keyframes kSgnJByg_draw_17{5.714285714285714%{stroke-dashoffset: 7}62.857142857142854%{ stroke-dashoffset: 0;}100%{ stroke-dashoffset: 0;}}@keyframes kSgnJByg_draw_18{5.714285714285714%{stroke-dashoffset: 13}62.857142857142854%{ stroke-dashoffset: 0;}100%{ stroke-dashoffset: 0;}}@keyframes kSgnJByg_draw_19{5.714285714285714%{stroke-dashoffset: 8}62.857142857142854%{ stroke-dashoffset: 0;}100%{ stroke-dashoffset: 0;}}@keyframes kSgnJByg_draw_20{5.714285714285714%{stroke-dashoffset: 14}62.857142857142854%{ stroke-dashoffset: 0;}100%{ stroke-dashoffset: 0;}}@keyframes kSgnJByg_draw_21{5.714285714285714%{stroke-dashoffset: 9}62.857142857142854%{ stroke-dashoffset: 0;}100%{ stroke-dashoffset: 0;}}@keyframes kSgnJByg_draw_22{5.714285714285714%{stroke-dashoffset: 7}62.857142857142854%{ stroke-dashoffset: 0;}100%{ stroke-dashoffset: 0;}}@keyframes kSgnJByg_draw_23{5.714285714285714%{stroke-dashoffset: 8}62.857142857142854%{ stroke-dashoffset: 0;}100%{ stroke-dashoffset: 0;}}@keyframes kSgnJByg_draw_24{5.714285714285714%{stroke-dashoffset: 3}62.857142857142854%{ stroke-dashoffset: 0;}100%{ stroke-dashoffset: 0;}}@keyframes kSgnJByg_draw_25{5.714285714285714%{stroke-dashoffset: 8}62.857142857142854%{ stroke-dashoffset: 0;}100%{ stroke-dashoffset: 0;}}@keyframes kSgnJByg_draw_26{5.714285714285714%{stroke-dashoffset: 10}62.857142857142854%{ stroke-dashoffset: 0;}100%{ stroke-dashoffset: 0;}}@keyframes kSgnJByg_draw_27{5.714285714285714%{stroke-dashoffset: 29}62.857142857142854%{ stroke-dashoffset: 0;}100%{ stroke-dashoffset: 0;}}@keyframes kSgnJByg_draw_28{5.714285714285714%{stroke-dashoffset: 11}62.857142857142854%{ stroke-dashoffset: 0;}100%{ stroke-dashoffset: 0;}}@keyframes kSgnJByg_draw_29{5.714285714285714%{stroke-dashoffset: 21}62.857142857142854%{ stroke-dashoffset: 0;}100%{ stroke-dashoffset: 0;}}@keyframes kSgnJByg_draw_30{5.714285714285714%{stroke-dashoffset: 2}62.857142857142854%{ stroke-dashoffset: 0;}100%{ stroke-dashoffset: 0;}}@keyframes kSgnJByg_draw_31{5.714285714285714%{stroke-dashoffset: 37}62.857142857142854%{ stroke-dashoffset: 0;}100%{ stroke-dashoffset: 0;}}@keyframes kSgnJByg_draw_32{5.714285714285714%{stroke-dashoffset: 42}62.857142857142854%{ stroke-dashoffset: 0;}100%{ stroke-dashoffset: 0;}}@keyframes kSgnJByg_draw_33{5.714285714285714%{stroke-dashoffset: 11}62.857142857142854%{ stroke-dashoffset: 0;}100%{ stroke-dashoffset: 0;}}@keyframes kSgnJByg_draw_34{5.714285714285714%{stroke-dashoffset: 54}62.857142857142854%{ stroke-dashoffset: 0;}100%{ stroke-dashoffset: 0;}}@keyframes kSgnJByg_draw_35{5.714285714285714%{stroke-dashoffset: 49}62.857142857142854%{ stroke-dashoffset: 0;}100%{ stroke-dashoffset: 0;}}@keyframes kSgnJByg_draw_36{5.714285714285714%{stroke-dashoffset: 57}62.857142857142854%{ stroke-dashoffset: 0;}100%{ stroke-dashoffset: 0;}}@keyframes kSgnJByg_draw_37{5.714285714285714%{stroke-dashoffset: 61}62.857142857142854%{ stroke-dashoffset: 0;}100%{ stroke-dashoffset: 0;}}@keyframes kSgnJByg_draw_38{5.714285714285714%{stroke-dashoffset: 136}62.857142857142854%{ stroke-dashoffset: 0;}100%{ stroke-dashoffset: 0;}}@keyframes kSgnJByg_draw_39{5.714285714285714%{stroke-dashoffset: 149}62.857142857142854%{ stroke-dashoffset: 0;}100%{ stroke-dashoffset: 0;}}@keyframes kSgnJByg_draw_40{5.714285714285714%{stroke-dashoffset: 159}62.857142857142854%{ stroke-dashoffset: 0;}100%{ stroke-dashoffset: 0;}}@keyframes kSgnJByg_draw_41{5.714285714285714%{stroke-dashoffset: 168}62.857142857142854%{ stroke-dashoffset: 0;}100%{ stroke-dashoffset: 0;}}@keyframes kSgnJByg_draw_42{5.714285714285714%{stroke-dashoffset: 178}62.857142857142854%{ stroke-dashoffset: 0;}100%{ stroke-dashoffset: 0;}}@keyframes kSgnJByg_draw_43{5.714285714285714%{stroke-dashoffset: 188}62.857142857142854%{ stroke-dashoffset: 0;}100%{ stroke-dashoffset: 0;}}@keyframes kSgnJByg_draw_44{5.714285714285714%{stroke-dashoffset: 198}62.857142857142854%{ stroke-dashoffset: 0;}100%{ stroke-dashoffset: 0;}}@keyframes kSgnJByg_draw_45{5.714285714285714%{stroke-dashoffset: 208}62.857142857142854%{ stroke-dashoffset: 0;}100%{ stroke-dashoffset: 0;}}@keyframes kSgnJByg_draw_46{5.714285714285714%{stroke-dashoffset: 217}62.857142857142854%{ stroke-dashoffset: 0;}100%{ stroke-dashoffset: 0;}}@keyframes kSgnJByg_draw_47{5.714285714285714%{stroke-dashoffset: 227}62.857142857142854%{ stroke-dashoffset: 0;}100%{ stroke-dashoffset: 0;}}@keyframes kSgnJByg_draw_48{5.714285714285714%{stroke-dashoffset: 237}62.857142857142854%{ stroke-dashoffset: 0;}100%{ stroke-dashoffset: 0;}}@keyframes kSgnJByg_draw_49{5.714285714285714%{stroke-dashoffset: 5}62.857142857142854%{ stroke-dashoffset: 0;}100%{ stroke-dashoffset: 0;}}@keyframes kSgnJByg_draw_50{5.714285714285714%{stroke-dashoffset: 4}62.857142857142854%{ stroke-dashoffset: 0;}100%{ stroke-dashoffset: 0;}}@keyframes kSgnJByg_draw_51{5.714285714285714%{stroke-dashoffset: 4}62.857142857142854%{ stroke-dashoffset: 0;}100%{ stroke-dashoffset: 0;}}</style></svg>
