<!--?xml version="1.0" encoding="utf-8"?-->
<!-- Generator: Adobe Illustrator 22.0.1, SVG Export Plug-In . SVG Version: 6.00 Build 0)  -->
<svg version="1.1" id="Layer_1" xmlns="http://www.w3.org/2000/svg" xmlns:xlink="http://www.w3.org/1999/xlink" x="0px" y="0px" viewBox="0 0 100 100" style="" xml:space="preserve" class="">
<style type="text/css">
	.st0{fill:none;stroke:#DA95AD;stroke-width:0.3;stroke-miterlimit:10;}
</style>
<path class="st0 erWoauBu_0" d="M48.3,52.3c-0.3-0.2-0.5-0.4-0.7-0.7"></path>
<path class="st0 erWoauBu_1" d="M51.5,47.6c-0.9-0.6-2.1-0.6-3,0c-0.3,0.2-0.6,0.5-0.8,0.8"></path>
<path class="st0 erWoauBu_2" d="M47.8,53.2C47.8,53.1,47.7,53.1,47.8,53.2c-0.3-0.2-0.5-0.5-0.7-0.7"></path>
<path class="st0 erWoauBu_3" d="M52,46.7c-1.7-1-3.9-0.6-5.1,1c-0.2,0.3-0.3,0.6-0.5,0.9"></path>
<path class="st0 erWoauBu_4" d="M45,48.9c0.1-0.4,0.2-0.7,0.4-1.1c1.2-2.6,4.3-3.7,6.9-2.5c0.1,0,0.1,0.1,0.2,0.1"></path>
<path class="st0 erWoauBu_5" d="M46.3,53.6c0.2,0.2,0.5,0.5,0.8,0.7"></path>
<path class="st0 erWoauBu_6" d="M47.6,43.9c-1.7,0.7-3.1,2.1-3.8,4c-0.2,0.5-0.3,1-0.3,1.4"></path>
<path class="st0 erWoauBu_7" d="M45.6,54.9c0.3,0.2,0.5,0.4,0.8,0.6"></path>
<path class="st0 erWoauBu_8" d="M44.9,56.3c0.3,0.2,0.5,0.4,0.8,0.6"></path>
<path class="st0 erWoauBu_9" d="M58.1,50.2c0-0.8-0.1-1.6-0.3-2.3"></path>
<path class="st0 erWoauBu_10" d="M43.9,44.8c-0.8,0.9-1.3,2-1.7,3.2c-0.2,0.7-0.2,1.3-0.3,2"></path>
<path class="st0 erWoauBu_11" d="M59.5,50.3c0-1.4-0.2-2.8-0.7-4"></path>
<path class="st0 erWoauBu_12" d="M41.5,45.6c-0.4,0.8-0.7,1.6-0.9,2.5c-0.2,0.9-0.2,1.8-0.2,2.7"></path>
<path class="st0 erWoauBu_13" d="M44.4,57.8c0.3,0.2,0.6,0.4,0.9,0.6"></path>
<path class="st0 erWoauBu_14" d="M39.6,46.3c-0.2,0.6-0.4,1.2-0.5,1.9c-0.2,1.2-0.2,2.4,0,3.5"></path>
<path class="st0 erWoauBu_15" d="M46.7,60.6c-0.9-0.3-1.8-0.7-2.5-1.2"></path>
<path class="st0 erWoauBu_16" d="M61.1,50.1c0-1.8-0.4-3.5-1.2-5.1"></path>
<path class="st0 erWoauBu_17" d="M37.8,46.9c-0.1,0.4-0.2,0.8-0.3,1.3c-0.2,1.5-0.1,3,0.2,4.4"></path>
<path class="st0 erWoauBu_18" d="M55.3,61.5c-2.1,1-4.6,1.4-7.1,1c-1.4-0.2-2.6-0.6-3.8-1.2"></path>
<path class="st0 erWoauBu_19" d="M60.9,43.6c1.1,1.8,1.7,3.9,1.7,6.1"></path>
<path class="st0 erWoauBu_20" d="M46.5,63.7c0.6,0.1,1.2,0.3,1.8,0.4c3.8,0.5,7.4-0.6,10.2-2.7"></path>
<path class="st0 erWoauBu_21" d="M61.9,42.3c1.3,2.1,2.1,4.5,2.2,7.1"></path>
<path class="st0 erWoauBu_22" d="M38.8,41.4c-1.1,1.4-1.9,3-2.4,4.8"></path>
<path class="st0 erWoauBu_23" d="M36.1,47.5c0,0.2-0.1,0.5-0.1,0.7c-0.2,1.9-0.1,3.8,0.4,5.5"></path>
<path class="st0 erWoauBu_24" d="M36.1,47.5c0.1-0.5,0.2-0.9,0.3-1.3"></path>
<path class="st0 erWoauBu_25" d="M60,60c1.4-1.4,2.6-3.2,3.3-5.2"></path>
<path class="st0 erWoauBu_26" d="M62.8,41c1.6,2.3,2.6,5.1,2.8,8"></path>
<path class="st0 erWoauBu_27" d="M65.6,51.2c0,0.1,0,0.3,0,0.4c-0.9,8.6-8.6,14.9-17.2,14c-1-0.1-2-0.3-2.9-0.6"></path>
<path class="st0 erWoauBu_28" d="M43.2,35.9c2.6-1.2,5.5-1.8,8.5-1.5c0.3,0,0.7,0.1,1,0.2"></path>
<path class="st0 erWoauBu_29" d="M40.8,37.3c-3.5,2.5-5.9,6.4-6.4,11.1c-0.2,2.3,0,4.6,0.7,6.6"></path>
<path class="st0 erWoauBu_30" d="M67.2,48.8c0-0.1,0-0.1,0-0.2"></path>
<path class="st0 erWoauBu_31" d="M67.2,48.8c0.1,0.9,0.1,1.8,0,2.8C66.3,61,57.9,68,48.4,67.2c-1.9-0.2-3.6-0.6-5.3-1.4"></path>
<path class="st0 erWoauBu_32" d="M56.4,34c-1.5-0.6-3.1-1-4.8-1.2C42.1,32,33.7,39,32.8,48.4c-0.3,2.8,0.2,5.5,1.1,7.9"></path>
<path class="st0 erWoauBu_33" d="M63.7,39.6c1.9,2.6,3.1,5.7,3.4,9"></path>
<path class="st0 erWoauBu_34" d="M64.5,38.1c3,3.6,4.6,8.3,4.2,13.4c-0.8,10.3-9.9,18.1-20.2,17.2c-2.8-0.2-5.5-1.1-7.8-2.4"></path>
<path class="st0 erWoauBu_35" d="M59.2,33.7c-2.3-1.3-4.9-2.2-7.7-2.4c-10.3-0.8-19.4,6.9-20.2,17.2C31,51.8,31.6,55,33,57.9"></path>
<path class="st0 erWoauBu_36" d="M62.1,33.7c-3-2.2-6.7-3.7-10.7-3.9c-11.2-0.8-20.9,7.7-21.7,18.9c-0.3,4,0.6,7.9,2.5,11.2"></path>
<path class="st0 erWoauBu_37" d="M65,36.3c3.6,4,5.7,9.3,5.3,15.1c-0.8,11.2-10.5,19.6-21.7,18.9c-4-0.3-7.6-1.7-10.6-3.9"></path>
<path class="st0 erWoauBu_38" d="M34.2,65.2c3.7,3.8,8.7,6.3,14.4,6.7c12.1,0.7,22.4-8.4,23.2-20.5c0.7-12.1-8.4-22.4-20.5-23.2
	c-12.1-0.7-22.4,8.4-23.2,20.5c-0.3,5.3,1.3,10.2,4.1,14.2"></path>
<path transform="matrix(3.199137e-02 -0.9995 0.9995 3.199137e-02 -1.574 98.3748)" class="st0 erWoauBu_39" d="M26.6,50A23.4,23.4 0,1,1 73.4,50A23.4,23.4 0,1,1 26.6,50"></path>
<path transform="matrix(2.248014e-02 -0.9997 0.9997 2.248014e-02 -1.1114 98.8633)" class="st0 erWoauBu_40" d="M25,50A25,25 0,1,1 75,50A25,25 0,1,1 25,50"></path>
<path transform="matrix(2.161350e-02 -0.9998 0.9998 2.161350e-02 -1.069 98.9076)" class="st0 erWoauBu_41" d="M23.5,50A26.5,26.5 0,1,1 76.5,50A26.5,26.5 0,1,1 23.5,50"></path>
<path transform="matrix(1.351313e-02 -0.9999 0.9999 1.351313e-02 -0.6711 99.3197)" class="st0 erWoauBu_42" d="M21.9,50A28.1,28.1 0,1,1 78.1,50A28.1,28.1 0,1,1 21.9,50"></path>
<path transform="matrix(1.732371e-02 -0.9998 0.9998 1.732371e-02 -0.8587 99.1263)" class="st0 erWoauBu_43" d="M20.3,50A29.7,29.6 0,1,1 79.7,50A29.7,29.6 0,1,1 20.3,50"></path>
<path transform="matrix(1.692478e-02 -0.9999 0.9999 1.692478e-02 -0.8391 99.1466)" class="st0 erWoauBu_44" d="M18.8,50A31.2,31.2 0,1,1 81.2,50A31.2,31.2 0,1,1 18.8,50"></path>
<path transform="matrix(1.289715e-02 -0.9999 0.9999 1.289715e-02 -0.6407 99.351)" class="st0 erWoauBu_45" d="M17.200000000000003,50A32.8,32.8 0,1,1 82.8,50A32.8,32.8 0,1,1 17.200000000000003,50"></path>
<path transform="matrix(9.558538e-03 -1 1 9.558538e-03 -0.4756 99.5198)" class="st0 erWoauBu_46" d="M15.700000000000003,50A34.3,34.3 0,1,1 84.3,50A34.3,34.3 0,1,1 15.700000000000003,50"></path>
<path transform="matrix(1.045033e-02 -0.9999 0.9999 1.045033e-02 -0.5198 99.4747)" class="st0 erWoauBu_47" d="M14.100000000000001,50A35.9,35.9 0,1,1 85.9,50A35.9,35.9 0,1,1 14.100000000000001,50"></path>
<path transform="matrix(7.006713e-03 -1 1 7.006713e-03 -0.3491 99.6484)" class="st0 erWoauBu_48" d="M12.600000000000001,50A37.4,37.4 0,1,1 87.4,50A37.4,37.4 0,1,1 12.600000000000001,50"></path>
<path transform="matrix(5.525147e-03 -1 1 5.525147e-03 -0.2755 99.7229)" class="st0 erWoauBu_49" d="M11,50A39,39 0,1,1 89,50A39,39 0,1,1 11,50"></path>
<path transform="matrix(5.518810e-03 -1 1 5.518810e-03 -0.2752 99.7233)" class="st0 erWoauBu_50" d="M9.399999999999999,50A40.6,40.6 0,1,1 90.6,50A40.6,40.6 0,1,1 9.399999999999999,50"></path>
<path transform="matrix(3.551433e-03 -1 1 3.551433e-03 -0.1772 99.8221)" class="st0 erWoauBu_51" d="M7.899999999999999,50A42.1,42.1 0,1,1 92.1,50A42.1,42.1 0,1,1 7.899999999999999,50"></path>
<path transform="matrix(1.919899e-03 -1 1 1.919899e-03 -9.590281e-02 99.9039)" class="st0 erWoauBu_52" d="M6.299999999999997,50A43.7,43.7 0,1,1 93.7,50A43.7,43.7 0,1,1 6.299999999999997,50"></path>
<path transform="matrix(1.375405e-03 -1 1 1.375405e-03 -6.869242e-02 99.9312)" class="st0 erWoauBu_53" d="M4.799999999999997,50A45.2,45.2 0,1,1 95.2,50A45.2,45.2 0,1,1 4.799999999999997,50"></path>
<path class="st0 erWoauBu_54" d="M3.200000000000003,50A46.8,46.8 0,1,1 96.8,50A46.8,46.8 0,1,1 3.200000000000003,50"></path>
<path class="st0 erWoauBu_55" d="M1.7000000000000028,50A48.3,48.4 0,1,1 98.3,50A48.3,48.4 0,1,1 1.7000000000000028,50"></path>
<path class="st0 erWoauBu_56" d="M46.4,48.6c0.4-0.1,0.8-0.1,1.2-0.1"></path>
<path class="st0 erWoauBu_57" d="M47,52.5c0.2-0.3,0.4-0.6,0.6-0.9"></path>
<path class="st0 erWoauBu_58" d="M45.6,54.9c0.2-0.4,0.5-0.8,0.7-1.3"></path>
<path class="st0 erWoauBu_59" d="M34.2,65.2c1,0.6,2.3,1.1,3.7,1.2"></path>
<path class="st0 erWoauBu_60" d="M47.9,51.2c-0.1,0.1-0.2,0.2-0.3,0.3"></path>
<path class="st0 erWoauBu_61" d="M45.6,54.9c-0.3,0.5-0.5,0.9-0.6,1.4"></path>
<path class="st0 erWoauBu_62" d="M44.9,56.3c-0.2,0.5-0.4,1-0.5,1.5"></path>
<path class="st0 erWoauBu_63" d="M34.2,65.2c-0.9-0.6-1.6-1.4-1.9-2.3"></path>
<path class="st0 erWoauBu_64" d="M32.2,59.8c0.2-0.6,0.4-1.2,0.8-1.9"></path>
<path class="st0 erWoauBu_65" d="M43.2,65.8c-0.8,0.2-1.7,0.4-2.4,0.5"></path>
<path class="st0 erWoauBu_66" d="M43.2,65.8c0.7-0.2,1.5-0.5,2.3-0.8"></path>
<path class="st0 erWoauBu_67" d="M46.5,63.7c-0.7-0.4-1.6-1.1-2.1-2.4"></path>
<path class="st0 erWoauBu_68" d="M44.1,59.4c0,0.7,0.1,1.4,0.2,1.9"></path>
<path class="st0 erWoauBu_69" d="M37.7,52.6c-0.4,0.4-0.9,0.7-1.3,1.1"></path>
<path class="st0 erWoauBu_70" d="M44.4,57.8c-0.2,0.6-0.2,1.2-0.3,1.6"></path>
<path class="st0 erWoauBu_71" d="M45,48.9c-0.5,0.1-1,0.3-1.5,0.5"></path>
<path class="st0 erWoauBu_72" d="M35.1,55c-0.2,0.2-0.4,0.5-0.7,0.7c-0.2,0.2-0.3,0.4-0.5,0.6"></path>
<path class="st0 erWoauBu_73" d="M40.7,66.3c-1,0.1-1.9,0.1-2.8,0.1"></path>
<path class="st0 erWoauBu_74" d="M32.2,59.8c-0.3,1.1-0.2,2.2,0.1,3.1"></path>
<path class="st0 erWoauBu_75" d="M46.5,63.7c0.5,0.3,0.9,0.4,0.9,0.4c-0.7,0.4-1.3,0.7-2,0.9"></path>
<path class="st0 erWoauBu_76" d="M39,51.6c0.5-0.3,1-0.6,1.4-0.9"></path>
<path class="st0 erWoauBu_77" d="M43.4,49.3c-0.5,0.2-1,0.4-1.5,0.6"></path>
<path class="st0 erWoauBu_78" d="M35.1,55c0.4-0.4,0.8-0.8,1.2-1.2"></path>
<path class="st0 erWoauBu_79" d="M39,51.6c-0.4,0.3-0.9,0.6-1.4,1"></path>
<path class="st0 erWoauBu_80" d="M34,56.3c-0.4,0.5-0.8,1-1,1.5"></path>
<path class="st0 erWoauBu_81" d="M48.2,48.4c-0.2,0-0.3,0-0.5,0"></path>
<path class="st0 erWoauBu_82" d="M47,52.5c-0.3,0.4-0.5,0.8-0.7,1.1"></path>
<path class="st0 erWoauBu_83" d="M41.9,49.9c-0.5,0.2-1,0.5-1.5,0.8"></path>
<path class="st0 erWoauBu_84" d="M47.9,51.2c0.6-0.8,1.3-1.7,2.2-2.7c0,0-0.7-0.1-1.9-0.1"></path>
<path class="st0 erWoauBu_85" d="M45,48.9c0.5-0.1,1-0.2,1.5-0.3"></path>
<path class="st0 erWoauBu_86" d="M36.4,46.2l-0.8,1.5c0,0,0.2-0.1,0.5-0.2"></path>
<path class="st0 erWoauBu_87" d="M59.2,33.7c1-0.1,2-0.1,2.9,0"></path>
<path class="st0 erWoauBu_88" d="M58.5,61.3L55.3,61.5"></path>
<path class="st0 erWoauBu_89" d="M64.1,49.4c-0.5,0.1-1,0.2-1.5,0.3"></path>
<path class="st0 erWoauBu_90" d="M61.9,42.3c-0.3,0.4-0.7,0.9-1,1.3"></path>
<path class="st0 erWoauBu_91" d="M63.3,54.9c-1.3,2-2.5,3.9-3.3,5.2"></path>
<path class="st0 erWoauBu_92" d="M61.9,42.3c0.5-0.7,0.9-1.2,0.9-1.2c0,0,0.1-0.1,0.1-0.1"></path>
<path class="st0 erWoauBu_93" d="M67.2,48.8c0.1-0.1,0.1-0.2,0.1-0.2c0,0-0.1,0-0.1,0"></path>
<path class="st0 erWoauBu_94" d="M65,36.3c0,0.5-0.2,1.1-0.5,1.8"></path>
<path class="st0 erWoauBu_95" d="M43.9,44.8c-0.7,0.2-1.5,0.5-2.3,0.8"></path>
<path class="st0 erWoauBu_96" d="M40.8,37.3L41.4,36.1L43.2,35.9"></path>
<path class="st0 erWoauBu_97" d="M59.2,33.7c-1,0.1-2,0.2-2.8,0.4"></path>
<path class="st0 erWoauBu_98" d="M37.8,46.9c0.5-0.2,1.2-0.4,1.8-0.7"></path>
<path class="st0 erWoauBu_99" d="M36.4,46.2L38.8,41.4"></path>
<path class="st0 erWoauBu_100" d="M52.7,34.6l2.2-0.3c0.4,0,0.9-0.1,1.5-0.2"></path>
<path class="st0 erWoauBu_101" d="M39.6,46.3c0.6-0.2,1.3-0.5,2-0.7"></path>
<path class="st0 erWoauBu_102" d="M43.2,35.9L52.7,34.6"></path>
<path class="st0 erWoauBu_103" d="M40.8,37.3L38.8,41.4"></path>
<path class="st0 erWoauBu_104" d="M63.7,39.6c-0.3,0.4-0.6,0.9-0.9,1.4"></path>
<path class="st0 erWoauBu_105" d="M64.5,38.1c-0.2,0.5-0.5,1-0.8,1.5"></path>
<path class="st0 erWoauBu_106" d="M59.9,45c0.2-0.3,0.6-0.8,1-1.3"></path>
<path class="st0 erWoauBu_107" d="M48.6,51.9c1-1.6,2.1-3.1,2.7-4"></path>
<path class="st0 erWoauBu_108" d="M58.1,50.2c-1.1-0.4-0.7-1.6-0.3-2.3"></path>
<path class="st0 erWoauBu_109" d="M52,46.7c0.2-0.5,0.3-0.9,0.4-1.3"></path>
<path class="st0 erWoauBu_110" d="M51.5,47.6c0.2-0.3,0.4-0.5,0.4-0.5c0.1-0.1,0.1-0.2,0.2-0.3"></path>
<path class="st0 erWoauBu_111" d="M57.8,47.9c0.1-0.1,0.1-0.2,0.2-0.3c0.1-0.2,0.2-0.5,0.9-1.3"></path>
<path class="st0 erWoauBu_112" d="M48.6,51.9c-0.1,0.1-0.1,0.2-0.2,0.3"></path>
<path class="st0 erWoauBu_113" d="M65.6,49c0.8-0.2,1.3-0.3,1.5-0.4"></path>
<path class="st0 erWoauBu_114" d="M37.8,46.9c-0.7,0.3-1.3,0.5-1.7,0.6"></path>
<path class="st0 erWoauBu_115" d="M48.3,52.3c-0.2,0.3-0.4,0.6-0.6,0.9"></path>
<path class="st0 erWoauBu_116" d="M46.4,55.5c0.2-0.4,0.5-0.8,0.7-1.2"></path>
<path class="st0 erWoauBu_117" d="M52.4,45.4c0.1-2.1-2.6-1.9-4.8-1.5"></path>
<path class="st0 erWoauBu_118" d="M47.8,53.2c-0.2,0.4-0.5,0.7-0.7,1.1"></path>
<path class="st0 erWoauBu_119" d="M47.6,43.9c-1,0.2-2,0.4-2.4,0.5c-0.3,0.1-0.8,0.2-1.3,0.4"></path>
<path class="st0 erWoauBu_120" d="M51.5,47.6c-0.1,0.1-0.1,0.2-0.2,0.3"></path>
<path class="st0 erWoauBu_121" d="M55.3,61.5l-5.4,0.2c-1.5-0.3-2.5-0.7-3.2-1.1"></path>
<path class="st0 erWoauBu_122" d="M65.6,51.2c-0.7,1.1-1.5,2.4-2.4,3.7"></path>
<path class="st0 erWoauBu_123" d="M61.1,50.1c0.5-0.1,1.1-0.2,1.5-0.3"></path>
<path class="st0 erWoauBu_124" d="M59.5,50.3c-0.7,0.1-1.2,0-1.5-0.1"></path>
<path class="st0 erWoauBu_125" d="M64.1,49.4c0.6-0.1,1.1-0.3,1.5-0.4"></path>
<path class="st0 erWoauBu_126" d="M67.2,48.8c-0.2,0.4-0.8,1.3-1.5,2.4"></path>
<path class="st0 erWoauBu_127" d="M58.5,61.3l0.7,0c0,0,0.3-0.5,0.8-1.3"></path>
<path class="st0 erWoauBu_128" d="M65,36.3c0.1-1.7-1.2-2.4-2.9-2.6"></path>
<path class="st0 erWoauBu_129" d="M45.3,58.3c0-0.3,0.1-0.5,0.1-0.7c0-0.2,0.2-0.5,0.3-0.8"></path>
<path class="st0 erWoauBu_130" d="M45.7,56.8c0.2-0.4,0.4-0.8,0.7-1.3"></path>
<path class="st0 erWoauBu_131" d="M58.8,46.3c0.2-0.3,0.5-0.7,0.9-1.1c0,0,0.1-0.1,0.1-0.2"></path>
<path class="st0 erWoauBu_132" d="M61.1,50.1c-0.1,0-0.2,0-0.3,0.1c-0.5,0.1-0.9,0.2-1.3,0.2"></path>
<path class="st0 erWoauBu_133" d="M46.7,60.6c-1.2-0.7-1.4-1.6-1.4-2.2"></path>
<style data-made-with="vivus-instant">.erWoauBu_0{stroke-dasharray:1 3;stroke-dashoffset:2;animation:erWoauBu_draw 2980ms ease-in 0ms forwards;}.erWoauBu_1{stroke-dasharray:5 7;stroke-dashoffset:6;animation:erWoauBu_draw 2980ms ease-in 0ms forwards;}.erWoauBu_2{stroke-dasharray:2 4;stroke-dashoffset:3;animation:erWoauBu_draw 2980ms ease-in 0ms forwards;}.erWoauBu_3{stroke-dasharray:7 9;stroke-dashoffset:8;animation:erWoauBu_draw 2980ms ease-in 0ms forwards;}.erWoauBu_4{stroke-dasharray:10 12;stroke-dashoffset:11;animation:erWoauBu_draw 2980ms ease-in 0ms forwards;}.erWoauBu_5{stroke-dasharray:2 4;stroke-dashoffset:3;animation:erWoauBu_draw 2980ms ease-in 0ms forwards;}.erWoauBu_6{stroke-dasharray:8 10;stroke-dashoffset:9;animation:erWoauBu_draw 2980ms ease-in 0ms forwards;}.erWoauBu_7{stroke-dasharray:2 4;stroke-dashoffset:3;animation:erWoauBu_draw 2980ms ease-in 1ms forwards;}.erWoauBu_8{stroke-dasharray:2 4;stroke-dashoffset:3;animation:erWoauBu_draw 2980ms ease-in 1ms forwards;}.erWoauBu_9{stroke-dasharray:3 5;stroke-dashoffset:4;animation:erWoauBu_draw 2980ms ease-in 1ms forwards;}.erWoauBu_10{stroke-dasharray:6 8;stroke-dashoffset:7;animation:erWoauBu_draw 2980ms ease-in 1ms forwards;}.erWoauBu_11{stroke-dasharray:5 7;stroke-dashoffset:6;animation:erWoauBu_draw 2980ms ease-in 1ms forwards;}.erWoauBu_12{stroke-dasharray:6 8;stroke-dashoffset:7;animation:erWoauBu_draw 2980ms ease-in 1ms forwards;}.erWoauBu_13{stroke-dasharray:2 4;stroke-dashoffset:3;animation:erWoauBu_draw 2980ms ease-in 1ms forwards;}.erWoauBu_14{stroke-dasharray:6 8;stroke-dashoffset:7;animation:erWoauBu_draw 2980ms ease-in 2ms forwards;}.erWoauBu_15{stroke-dasharray:3 5;stroke-dashoffset:4;animation:erWoauBu_draw 2980ms ease-in 2ms forwards;}.erWoauBu_16{stroke-dasharray:6 8;stroke-dashoffset:7;animation:erWoauBu_draw 2980ms ease-in 2ms forwards;}.erWoauBu_17{stroke-dasharray:6 8;stroke-dashoffset:7;animation:erWoauBu_draw 2980ms ease-in 2ms forwards;}.erWoauBu_18{stroke-dasharray:12 14;stroke-dashoffset:13;animation:erWoauBu_draw 2980ms ease-in 2ms forwards;}.erWoauBu_19{stroke-dasharray:7 9;stroke-dashoffset:8;animation:erWoauBu_draw 2980ms ease-in 2ms forwards;}.erWoauBu_20{stroke-dasharray:13 15;stroke-dashoffset:14;animation:erWoauBu_draw 2980ms ease-in 3ms forwards;}.erWoauBu_21{stroke-dasharray:8 10;stroke-dashoffset:9;animation:erWoauBu_draw 2980ms ease-in 3ms forwards;}.erWoauBu_22{stroke-dasharray:6 8;stroke-dashoffset:7;animation:erWoauBu_draw 2980ms ease-in 3ms forwards;}.erWoauBu_23{stroke-dasharray:7 9;stroke-dashoffset:8;animation:erWoauBu_draw 2980ms ease-in 3ms forwards;}.erWoauBu_24{stroke-dasharray:2 4;stroke-dashoffset:3;animation:erWoauBu_draw 2980ms ease-in 3ms forwards;}.erWoauBu_25{stroke-dasharray:7 9;stroke-dashoffset:8;animation:erWoauBu_draw 2980ms ease-in 3ms forwards;}.erWoauBu_26{stroke-dasharray:9 11;stroke-dashoffset:10;animation:erWoauBu_draw 2980ms ease-in 3ms forwards;}.erWoauBu_27{stroke-dasharray:28 30;stroke-dashoffset:29;animation:erWoauBu_draw 2980ms ease-in 4ms forwards;}.erWoauBu_28{stroke-dasharray:10 12;stroke-dashoffset:11;animation:erWoauBu_draw 2980ms ease-in 4ms forwards;}.erWoauBu_29{stroke-dasharray:20 22;stroke-dashoffset:21;animation:erWoauBu_draw 2980ms ease-in 4ms forwards;}.erWoauBu_30{stroke-dasharray:1 3;stroke-dashoffset:2;animation:erWoauBu_draw 2980ms ease-in 4ms forwards;}.erWoauBu_31{stroke-dasharray:36 38;stroke-dashoffset:37;animation:erWoauBu_draw 2980ms ease-in 4ms forwards;}.erWoauBu_32{stroke-dasharray:41 43;stroke-dashoffset:42;animation:erWoauBu_draw 2980ms ease-in 4ms forwards;}.erWoauBu_33{stroke-dasharray:10 12;stroke-dashoffset:11;animation:erWoauBu_draw 2980ms ease-in 4ms forwards;}.erWoauBu_34{stroke-dasharray:53 55;stroke-dashoffset:54;animation:erWoauBu_draw 2980ms ease-in 5ms forwards;}.erWoauBu_35{stroke-dasharray:48 50;stroke-dashoffset:49;animation:erWoauBu_draw 2980ms ease-in 5ms forwards;}.erWoauBu_36{stroke-dasharray:56 58;stroke-dashoffset:57;animation:erWoauBu_draw 2980ms ease-in 5ms forwards;}.erWoauBu_37{stroke-dasharray:60 62;stroke-dashoffset:61;animation:erWoauBu_draw 2980ms ease-in 5ms forwards;}.erWoauBu_38{stroke-dasharray:135 137;stroke-dashoffset:136;animation:erWoauBu_draw 2980ms ease-in 5ms forwards;}.erWoauBu_39{stroke-dasharray:148 150;stroke-dashoffset:149;animation:erWoauBu_draw 2980ms ease-in 5ms forwards;}.erWoauBu_40{stroke-dasharray:158 160;stroke-dashoffset:159;animation:erWoauBu_draw 2980ms ease-in 6ms forwards;}.erWoauBu_41{stroke-dasharray:167 169;stroke-dashoffset:168;animation:erWoauBu_draw 2980ms ease-in 6ms forwards;}.erWoauBu_42{stroke-dasharray:177 179;stroke-dashoffset:178;animation:erWoauBu_draw 2980ms ease-in 6ms forwards;}.erWoauBu_43{stroke-dasharray:187 189;stroke-dashoffset:188;animation:erWoauBu_draw 2980ms ease-in 6ms forwards;}.erWoauBu_44{stroke-dasharray:197 199;stroke-dashoffset:198;animation:erWoauBu_draw 2980ms ease-in 6ms forwards;}.erWoauBu_45{stroke-dasharray:207 209;stroke-dashoffset:208;animation:erWoauBu_draw 2980ms ease-in 6ms forwards;}.erWoauBu_46{stroke-dasharray:216 218;stroke-dashoffset:217;animation:erWoauBu_draw 2980ms ease-in 6ms forwards;}.erWoauBu_47{stroke-dasharray:226 228;stroke-dashoffset:227;animation:erWoauBu_draw 2980ms ease-in 7ms forwards;}.erWoauBu_48{stroke-dasharray:236 238;stroke-dashoffset:237;animation:erWoauBu_draw 2980ms ease-in 7ms forwards;}.erWoauBu_49{stroke-dasharray:246 248;stroke-dashoffset:247;animation:erWoauBu_draw 2980ms ease-in 7ms forwards;}.erWoauBu_50{stroke-dasharray:256 258;stroke-dashoffset:257;animation:erWoauBu_draw 2980ms ease-in 7ms forwards;}.erWoauBu_51{stroke-dasharray:265 267;stroke-dashoffset:266;animation:erWoauBu_draw 2980ms ease-in 7ms forwards;}.erWoauBu_52{stroke-dasharray:275 277;stroke-dashoffset:276;animation:erWoauBu_draw 2980ms ease-in 7ms forwards;}.erWoauBu_53{stroke-dasharray:285 287;stroke-dashoffset:286;animation:erWoauBu_draw 2980ms ease-in 7ms forwards;}.erWoauBu_54{stroke-dasharray:295 297;stroke-dashoffset:296;animation:erWoauBu_draw 2980ms ease-in 8ms forwards;}.erWoauBu_55{stroke-dasharray:304 306;stroke-dashoffset:305;animation:erWoauBu_draw 2980ms ease-in 8ms forwards;}.erWoauBu_56{stroke-dasharray:2 4;stroke-dashoffset:3;animation:erWoauBu_draw 2980ms ease-in 8ms forwards;}.erWoauBu_57{stroke-dasharray:2 4;stroke-dashoffset:3;animation:erWoauBu_draw 2980ms ease-in 8ms forwards;}.erWoauBu_58{stroke-dasharray:2 4;stroke-dashoffset:3;animation:erWoauBu_draw 2980ms ease-in 8ms forwards;}.erWoauBu_59{stroke-dasharray:4 6;stroke-dashoffset:5;animation:erWoauBu_draw 2980ms ease-in 8ms forwards;}.erWoauBu_60{stroke-dasharray:1 3;stroke-dashoffset:2;animation:erWoauBu_draw 2980ms ease-in 9ms forwards;}.erWoauBu_61{stroke-dasharray:2 4;stroke-dashoffset:3;animation:erWoauBu_draw 2980ms ease-in 9ms forwards;}.erWoauBu_62{stroke-dasharray:2 4;stroke-dashoffset:3;animation:erWoauBu_draw 2980ms ease-in 9ms forwards;}.erWoauBu_63{stroke-dasharray:4 6;stroke-dashoffset:5;animation:erWoauBu_draw 2980ms ease-in 9ms forwards;}.erWoauBu_64{stroke-dasharray:3 5;stroke-dashoffset:4;animation:erWoauBu_draw 2980ms ease-in 9ms forwards;}.erWoauBu_65{stroke-dasharray:3 5;stroke-dashoffset:4;animation:erWoauBu_draw 2980ms ease-in 9ms forwards;}.erWoauBu_66{stroke-dasharray:3 5;stroke-dashoffset:4;animation:erWoauBu_draw 2980ms ease-in 9ms forwards;}.erWoauBu_67{stroke-dasharray:4 6;stroke-dashoffset:5;animation:erWoauBu_draw 2980ms ease-in 10ms forwards;}.erWoauBu_68{stroke-dasharray:2 4;stroke-dashoffset:3;animation:erWoauBu_draw 2980ms ease-in 10ms forwards;}.erWoauBu_69{stroke-dasharray:2 4;stroke-dashoffset:3;animation:erWoauBu_draw 2980ms ease-in 10ms forwards;}.erWoauBu_70{stroke-dasharray:2 4;stroke-dashoffset:3;animation:erWoauBu_draw 2980ms ease-in 10ms forwards;}.erWoauBu_71{stroke-dasharray:2 4;stroke-dashoffset:3;animation:erWoauBu_draw 2980ms ease-in 10ms forwards;}.erWoauBu_72{stroke-dasharray:2 4;stroke-dashoffset:3;animation:erWoauBu_draw 2980ms ease-in 10ms forwards;}.erWoauBu_73{stroke-dasharray:3 5;stroke-dashoffset:4;animation:erWoauBu_draw 2980ms ease-in 10ms forwards;}.erWoauBu_74{stroke-dasharray:4 6;stroke-dashoffset:5;animation:erWoauBu_draw 2980ms ease-in 11ms forwards;}.erWoauBu_75{stroke-dasharray:4 6;stroke-dashoffset:5;animation:erWoauBu_draw 2980ms ease-in 11ms forwards;}.erWoauBu_76{stroke-dasharray:2 4;stroke-dashoffset:3;animation:erWoauBu_draw 2980ms ease-in 11ms forwards;}.erWoauBu_77{stroke-dasharray:2 4;stroke-dashoffset:3;animation:erWoauBu_draw 2980ms ease-in 11ms forwards;}.erWoauBu_78{stroke-dasharray:2 4;stroke-dashoffset:3;animation:erWoauBu_draw 2980ms ease-in 11ms forwards;}.erWoauBu_79{stroke-dasharray:2 4;stroke-dashoffset:3;animation:erWoauBu_draw 2980ms ease-in 11ms forwards;}.erWoauBu_80{stroke-dasharray:2 4;stroke-dashoffset:3;animation:erWoauBu_draw 2980ms ease-in 12ms forwards;}.erWoauBu_81{stroke-dasharray:1 3;stroke-dashoffset:2;animation:erWoauBu_draw 2980ms ease-in 12ms forwards;}.erWoauBu_82{stroke-dasharray:2 4;stroke-dashoffset:3;animation:erWoauBu_draw 2980ms ease-in 12ms forwards;}.erWoauBu_83{stroke-dasharray:2 4;stroke-dashoffset:3;animation:erWoauBu_draw 2980ms ease-in 12ms forwards;}.erWoauBu_84{stroke-dasharray:6 8;stroke-dashoffset:7;animation:erWoauBu_draw 2980ms ease-in 12ms forwards;}.erWoauBu_85{stroke-dasharray:2 4;stroke-dashoffset:3;animation:erWoauBu_draw 2980ms ease-in 12ms forwards;}.erWoauBu_86{stroke-dasharray:3 5;stroke-dashoffset:4;animation:erWoauBu_draw 2980ms ease-in 12ms forwards;}.erWoauBu_87{stroke-dasharray:3 5;stroke-dashoffset:4;animation:erWoauBu_draw 2980ms ease-in 13ms forwards;}.erWoauBu_88{stroke-dasharray:4 6;stroke-dashoffset:5;animation:erWoauBu_draw 2980ms ease-in 13ms forwards;}.erWoauBu_89{stroke-dasharray:2 4;stroke-dashoffset:3;animation:erWoauBu_draw 2980ms ease-in 13ms forwards;}.erWoauBu_90{stroke-dasharray:2 4;stroke-dashoffset:3;animation:erWoauBu_draw 2980ms ease-in 13ms forwards;}.erWoauBu_91{stroke-dasharray:7 9;stroke-dashoffset:8;animation:erWoauBu_draw 2980ms ease-in 13ms forwards;}.erWoauBu_92{stroke-dasharray:2 4;stroke-dashoffset:3;animation:erWoauBu_draw 2980ms ease-in 13ms forwards;}.erWoauBu_93{stroke-dasharray:1 3;stroke-dashoffset:2;animation:erWoauBu_draw 2980ms ease-in 13ms forwards;}.erWoauBu_94{stroke-dasharray:2 4;stroke-dashoffset:3;animation:erWoauBu_draw 2980ms ease-in 14ms forwards;}.erWoauBu_95{stroke-dasharray:3 5;stroke-dashoffset:4;animation:erWoauBu_draw 2980ms ease-in 14ms forwards;}.erWoauBu_96{stroke-dasharray:4 6;stroke-dashoffset:5;animation:erWoauBu_draw 2980ms ease-in 14ms forwards;}.erWoauBu_97{stroke-dasharray:3 5;stroke-dashoffset:4;animation:erWoauBu_draw 2980ms ease-in 14ms forwards;}.erWoauBu_98{stroke-dasharray:2 4;stroke-dashoffset:3;animation:erWoauBu_draw 2980ms ease-in 14ms forwards;}.erWoauBu_99{stroke-dasharray:6 8;stroke-dashoffset:7;animation:erWoauBu_draw 2980ms ease-in 14ms forwards;}.erWoauBu_100{stroke-dasharray:4 6;stroke-dashoffset:5;animation:erWoauBu_draw 2980ms ease-in 15ms forwards;}.erWoauBu_101{stroke-dasharray:3 5;stroke-dashoffset:4;animation:erWoauBu_draw 2980ms ease-in 15ms forwards;}.erWoauBu_102{stroke-dasharray:10 12;stroke-dashoffset:11;animation:erWoauBu_draw 2980ms ease-in 15ms forwards;}.erWoauBu_103{stroke-dasharray:5 7;stroke-dashoffset:6;animation:erWoauBu_draw 2980ms ease-in 15ms forwards;}.erWoauBu_104{stroke-dasharray:2 4;stroke-dashoffset:3;animation:erWoauBu_draw 2980ms ease-in 15ms forwards;}.erWoauBu_105{stroke-dasharray:2 4;stroke-dashoffset:3;animation:erWoauBu_draw 2980ms ease-in 15ms forwards;}.erWoauBu_106{stroke-dasharray:2 4;stroke-dashoffset:3;animation:erWoauBu_draw 2980ms ease-in 15ms forwards;}.erWoauBu_107{stroke-dasharray:5 7;stroke-dashoffset:6;animation:erWoauBu_draw 2980ms ease-in 16ms forwards;}.erWoauBu_108{stroke-dasharray:3 5;stroke-dashoffset:4;animation:erWoauBu_draw 2980ms ease-in 16ms forwards;}.erWoauBu_109{stroke-dasharray:2 4;stroke-dashoffset:3;animation:erWoauBu_draw 2980ms ease-in 16ms forwards;}.erWoauBu_110{stroke-dasharray:2 4;stroke-dashoffset:3;animation:erWoauBu_draw 2980ms ease-in 16ms forwards;}.erWoauBu_111{stroke-dasharray:2 4;stroke-dashoffset:3;animation:erWoauBu_draw 2980ms ease-in 16ms forwards;}.erWoauBu_112{stroke-dasharray:1 3;stroke-dashoffset:2;animation:erWoauBu_draw 2980ms ease-in 16ms forwards;}.erWoauBu_113{stroke-dasharray:2 4;stroke-dashoffset:3;animation:erWoauBu_draw 2980ms ease-in 16ms forwards;}.erWoauBu_114{stroke-dasharray:2 4;stroke-dashoffset:3;animation:erWoauBu_draw 2980ms ease-in 17ms forwards;}.erWoauBu_115{stroke-dasharray:2 4;stroke-dashoffset:3;animation:erWoauBu_draw 2980ms ease-in 17ms forwards;}.erWoauBu_116{stroke-dasharray:2 4;stroke-dashoffset:3;animation:erWoauBu_draw 2980ms ease-in 17ms forwards;}.erWoauBu_117{stroke-dasharray:6 8;stroke-dashoffset:7;animation:erWoauBu_draw 2980ms ease-in 17ms forwards;}.erWoauBu_118{stroke-dasharray:2 4;stroke-dashoffset:3;animation:erWoauBu_draw 2980ms ease-in 17ms forwards;}.erWoauBu_119{stroke-dasharray:4 6;stroke-dashoffset:5;animation:erWoauBu_draw 2980ms ease-in 17ms forwards;}.erWoauBu_120{stroke-dasharray:1 3;stroke-dashoffset:2;animation:erWoauBu_draw 2980ms ease-in 18ms forwards;}.erWoauBu_121{stroke-dasharray:9 11;stroke-dashoffset:10;animation:erWoauBu_draw 2980ms ease-in 18ms forwards;}.erWoauBu_122{stroke-dasharray:5 7;stroke-dashoffset:6;animation:erWoauBu_draw 2980ms ease-in 18ms forwards;}.erWoauBu_123{stroke-dasharray:2 4;stroke-dashoffset:3;animation:erWoauBu_draw 2980ms ease-in 18ms forwards;}.erWoauBu_124{stroke-dasharray:2 4;stroke-dashoffset:3;animation:erWoauBu_draw 2980ms ease-in 18ms forwards;}.erWoauBu_125{stroke-dasharray:2 4;stroke-dashoffset:3;animation:erWoauBu_draw 2980ms ease-in 18ms forwards;}.erWoauBu_126{stroke-dasharray:3 5;stroke-dashoffset:4;animation:erWoauBu_draw 2980ms ease-in 18ms forwards;}.erWoauBu_127{stroke-dasharray:3 5;stroke-dashoffset:4;animation:erWoauBu_draw 2980ms ease-in 19ms forwards;}.erWoauBu_128{stroke-dasharray:5 7;stroke-dashoffset:6;animation:erWoauBu_draw 2980ms ease-in 19ms forwards;}.erWoauBu_129{stroke-dasharray:2 4;stroke-dashoffset:3;animation:erWoauBu_draw 2980ms ease-in 19ms forwards;}.erWoauBu_130{stroke-dasharray:2 4;stroke-dashoffset:3;animation:erWoauBu_draw 2980ms ease-in 19ms forwards;}.erWoauBu_131{stroke-dasharray:2 4;stroke-dashoffset:3;animation:erWoauBu_draw 2980ms ease-in 19ms forwards;}.erWoauBu_132{stroke-dasharray:2 4;stroke-dashoffset:3;animation:erWoauBu_draw 2980ms ease-in 19ms forwards;}.erWoauBu_133{stroke-dasharray:3 5;stroke-dashoffset:4;animation:erWoauBu_draw 2980ms ease-in 20ms forwards;}@keyframes erWoauBu_draw{100%{stroke-dashoffset:0;}}@keyframes erWoauBu_fade{0%{stroke-opacity:1;}94.44444444444444%{stroke-opacity:1;}100%{stroke-opacity:0;}}</style></svg>
