<?xml version="1.0" encoding="utf-8"?>

<svg version="1.1" id="Layer_1" xmlns="http://www.w3.org/2000/svg" xmlns:xlink="http://www.w3.org/1999/xlink" x="0px" y="0px"
	 viewBox="0 0 100 100" style="enable-background:new 0 0 100 100;" xml:space="preserve">
<style type="text/css">
	.st0{fill:none;stroke:#DA95AD;stroke-width:0.6;stroke-miterlimit:10;}
</style>
<path class="st0" d="M48.3,52.3c-0.3-0.2-0.5-0.4-0.7-0.7"/>
<path class="st0" d="M51.5,47.6c-0.9-0.6-2.1-0.6-3,0c-0.3,0.2-0.6,0.5-0.8,0.8"/>
<path class="st0" d="M47.8,53.2C47.8,53.1,47.7,53.1,47.8,53.2c-0.3-0.2-0.5-0.5-0.7-0.7"/>
<path class="st0" d="M52,46.7c-1.7-1-3.9-0.6-5.1,1c-0.2,0.3-0.3,0.6-0.5,0.9"/>
<path class="st0" d="M45,48.9c0.1-0.4,0.2-0.7,0.4-1.1c1.2-2.6,4.3-3.7,6.9-2.5c0.1,0,0.1,0.1,0.2,0.1"/>
<path class="st0" d="M46.3,53.6c0.2,0.2,0.5,0.5,0.8,0.7"/>
<path class="st0" d="M47.6,43.9c-1.7,0.7-3.1,2.1-3.8,4c-0.2,0.5-0.3,1-0.3,1.4"/>
<path class="st0" d="M45.6,54.9c0.3,0.2,0.5,0.4,0.8,0.6"/>
<path class="st0" d="M44.9,56.3c0.3,0.2,0.5,0.4,0.8,0.6"/>
<path class="st0" d="M58.1,50.2c0-0.8-0.1-1.6-0.3-2.3"/>
<path class="st0" d="M43.9,44.8c-0.8,0.9-1.3,2-1.7,3.2c-0.2,0.7-0.2,1.3-0.3,2"/>
<path class="st0" d="M59.5,50.3c0-1.4-0.2-2.8-0.7-4"/>
<path class="st0" d="M41.5,45.6c-0.4,0.8-0.7,1.6-0.9,2.5c-0.2,0.9-0.2,1.8-0.2,2.7"/>
<path class="st0" d="M44.4,57.8c0.3,0.2,0.6,0.4,0.9,0.6"/>
<path class="st0" d="M39.6,46.3c-0.2,0.6-0.4,1.2-0.5,1.9c-0.2,1.2-0.2,2.4,0,3.5"/>
<path class="st0" d="M46.7,60.6c-0.9-0.3-1.8-0.7-2.5-1.2"/>
<path class="st0" d="M61.1,50.1c0-1.8-0.4-3.5-1.2-5.1"/>
<path class="st0" d="M37.8,46.9c-0.1,0.4-0.2,0.8-0.3,1.3c-0.2,1.5-0.1,3,0.2,4.4"/>
<path class="st0" d="M55.3,61.5c-2.1,1-4.6,1.4-7.1,1c-1.4-0.2-2.6-0.6-3.8-1.2"/>
<path class="st0" d="M60.9,43.6c1.1,1.8,1.7,3.9,1.7,6.1"/>
<path class="st0" d="M46.5,63.7c0.6,0.1,1.2,0.3,1.8,0.4c3.8,0.5,7.4-0.6,10.2-2.7"/>
<path class="st0" d="M61.9,42.3c1.3,2.1,2.1,4.5,2.2,7.1"/>
<path class="st0" d="M38.8,41.4c-1.1,1.4-1.9,3-2.4,4.8"/>
<path class="st0" d="M36.1,47.5c0,0.2-0.1,0.5-0.1,0.7c-0.2,1.9-0.1,3.8,0.4,5.5"/>
<path class="st0" d="M36.1,47.5c0.1-0.5,0.2-0.9,0.3-1.3"/>
<path class="st0" d="M60,60c1.4-1.4,2.6-3.2,3.3-5.2"/>
<path class="st0" d="M62.8,41c1.6,2.3,2.6,5.1,2.8,8"/>
<path class="st0" d="M65.6,51.2c0,0.1,0,0.3,0,0.4c-0.9,8.6-8.6,14.9-17.2,14c-1-0.1-2-0.3-2.9-0.6"/>
<path class="st0" d="M43.2,35.9c2.6-1.2,5.5-1.8,8.5-1.5c0.3,0,0.7,0.1,1,0.2"/>
<path class="st0" d="M40.8,37.3c-3.5,2.5-5.9,6.4-6.4,11.1c-0.2,2.3,0,4.6,0.7,6.6"/>
<path class="st0" d="M67.2,48.8c0-0.1,0-0.1,0-0.2"/>
<path class="st0" d="M67.2,48.8c0.1,0.9,0.1,1.8,0,2.8C66.3,61,57.9,68,48.4,67.2c-1.9-0.2-3.6-0.6-5.3-1.4"/>
<path class="st0" d="M56.4,34c-1.5-0.6-3.1-1-4.8-1.2C42.1,32,33.7,39,32.8,48.4c-0.3,2.8,0.2,5.5,1.1,7.9"/>
<path class="st0" d="M63.7,39.6c1.9,2.6,3.1,5.7,3.4,9"/>
<path class="st0" d="M64.5,38.1c3,3.6,4.6,8.3,4.2,13.4c-0.8,10.3-9.9,18.1-20.2,17.2c-2.8-0.2-5.5-1.1-7.8-2.4"/>
<path class="st0" d="M59.2,33.7c-2.3-1.3-4.9-2.2-7.7-2.4c-10.3-0.8-19.4,6.9-20.2,17.2C31,51.8,31.6,55,33,57.9"/>
<path class="st0" d="M62.1,33.7c-3-2.2-6.7-3.7-10.7-3.9c-11.2-0.8-20.9,7.7-21.7,18.9c-0.3,4,0.6,7.9,2.5,11.2"/>
<path class="st0" d="M65,36.3c3.6,4,5.7,9.3,5.3,15.1c-0.8,11.2-10.5,19.6-21.7,18.9c-4-0.3-7.6-1.7-10.6-3.9"/>
<path class="st0" d="M34.2,65.2c3.7,3.8,8.7,6.3,14.4,6.7c12.1,0.7,22.4-8.4,23.2-20.5c0.7-12.1-8.4-22.4-20.5-23.2
	c-12.1-0.7-22.4,8.4-23.2,20.5c-0.3,5.3,1.3,10.2,4.1,14.2"/>
<ellipse transform="matrix(3.199137e-02 -0.9995 0.9995 3.199137e-02 -1.574 98.3748)" class="st0" cx="50" cy="50" rx="23.4" ry="23.4"/>
<ellipse transform="matrix(2.248014e-02 -0.9997 0.9997 2.248014e-02 -1.1114 98.8633)" class="st0" cx="50" cy="50" rx="25" ry="25"/>
<ellipse transform="matrix(2.161350e-02 -0.9998 0.9998 2.161350e-02 -1.069 98.9076)" class="st0" cx="50" cy="50" rx="26.5" ry="26.5"/>
<ellipse transform="matrix(1.351313e-02 -0.9999 0.9999 1.351313e-02 -0.6711 99.3197)" class="st0" cx="50" cy="50" rx="28.1" ry="28.1"/>
<ellipse transform="matrix(1.732371e-02 -0.9998 0.9998 1.732371e-02 -0.8587 99.1263)" class="st0" cx="50" cy="50" rx="29.7" ry="29.6"/>
<ellipse transform="matrix(1.692478e-02 -0.9999 0.9999 1.692478e-02 -0.8391 99.1466)" class="st0" cx="50" cy="50" rx="31.2" ry="31.2"/>
<ellipse transform="matrix(1.289715e-02 -0.9999 0.9999 1.289715e-02 -0.6407 99.351)" class="st0" cx="50" cy="50" rx="32.8" ry="32.8"/>
<ellipse transform="matrix(9.558538e-03 -1 1 9.558538e-03 -0.4756 99.5198)" class="st0" cx="50" cy="50" rx="34.3" ry="34.3"/>
<ellipse transform="matrix(1.045033e-02 -0.9999 0.9999 1.045033e-02 -0.5198 99.4747)" class="st0" cx="50" cy="50" rx="35.9" ry="35.9"/>
<ellipse transform="matrix(7.006713e-03 -1 1 7.006713e-03 -0.3491 99.6484)" class="st0" cx="50" cy="50" rx="37.4" ry="37.4"/>
<path class="st0" d="M34.2,65.2c-0.9-0.6-1.6-1.4-1.9-2.3"/>
<path class="st0" d="M58.1,50.2c-1.1-0.4-0.7-1.6-0.3-2.3"/>
<path class="st0" d="M58.5,61.3l0.7,0c0,0,0.3-0.5,0.8-1.3"/>
</svg>
