<?xml version="1.0" encoding="utf-8"?>
<!-- Generator: Adobe Illustrator 22.0.1, SVG Export Plug-In . SVG Version: 6.00 Build 0)  -->
<svg version="1.1" id="Layer_1" xmlns="http://www.w3.org/2000/svg" xmlns:xlink="http://www.w3.org/1999/xlink" x="0px" y="0px"
	 viewBox="0 0 100 100" style="enable-background:new 0 0 100 100;" xml:space="preserve">
<style type="text/css">
	.st0{fill:#DA95AD;}
</style>
<path class="st0" d="M49.2,1.9C22.4,1.9,0.7,23.6,0.7,50.4c0,26.8,21.7,48.5,48.5,48.5c26.8,0,48.5-21.7,48.5-48.5
	C97.7,23.6,76,1.9,49.2,1.9z M30.3,57.5c9.6-11,19.4-8.9,19.4-8.9c-14.4,16.6-3.4,19.3-3.4,19.3C32.8,75.2,21.6,67.5,30.3,57.5z
	 M61,64.4l-11.5,0.4c-6.6-1.3-5.8-4-5.6-5c0.6-2.7,8-13.1,8-13.1c3.2-6.5-6.4-3.7-8.3-3.3C41,44,31.8,47.5,31.8,47.5l7.2-14.4
	l16.7-2.4c3.3-0.4,18.9-4.2,9.8,8.6c0,0-3.5,4.6-3.8,5c-1.7,2.1-2,2.7-2.2,3c-0.6,1-2.5,4.5,3.5,3.2c5.9-1.3,8-1.9,8.1-1.9
	C70.7,49.3,61,64.4,61,64.4z"/>
</svg>
