<?xml version="1.0" encoding="utf-8"?>
<svg version="1.1" id="Layer_1" xmlns="http://www.w3.org/2000/svg" xmlns:xlink="http://www.w3.org/1999/xlink" x="0px" y="0px" viewBox="0 0 100 100" style="enable-background:new 0 0 100 100;" xml:space="preserve">
  <style type="text/css">
    .dash_circle {
      fill: none;
      stroke: #DA94AC;
      stroke-miterlimit: 10;
      stroke-dasharray: 11.7175, 11.7175;
    }
    .st1 {
      fill: #DA95AD;
    }
    .bar {
      fill: #FFFFFF;
    }
  </style>

  <!-- dashed circle -->
  <g id="dash_x5F_circle">
    <circle class="dash_circle" cx="50" cy="50" r="48.5">
      <animateTransform attributeName="transform" attributeType="XML" type="rotate" from="0 50 50" to="360 50 50" dur="10s" repeatCount="indefinite"/>
    </circle>
  </g>
  <circle class="st1" cx="50" cy="50" r="37.8"/>
  <g>
    <path class="bar" d="M33.5,58.8L33.5,58.8c-1.1,0-2-0.9-2-2V43.2c0-1.1,0.9-2,2-2h0c1.1,0,2,0.9,2,2v13.7
		C35.5,57.9,34.6,58.8,33.5,58.8z">
      <animateTransform attributeName="transform" attributeType="XML" type="translate"
        dur="1s"
        values="0,6;0,-6;0,6"
        repeatCount="indefinite"/>
    </path>
    <path class="bar" d="M41.8,58.8L41.8,58.8c-1.1,0-2-0.9-2-2V43.2c0-1.1,0.9-2,2-2h0c1.1,0,2,0.9,2,2v13.7
		C43.8,57.9,42.9,58.8,41.8,58.8z">
      <animateTransform attributeName="transform" attributeType="XML" type="translate"
        begin=".1"
        dur="1s"
        values="0,6;0,-6;0,6"
        repeatCount="indefinite"/>
    </path>
    <path class="bar" d="M50,58.8L50,58.8c-1.1,0-2-0.9-2-2V43.2c0-1.1,0.9-2,2-2h0c1.1,0,2,0.9,2,2v13.7C52,57.9,51.1,58.8,50,58.8z">
      <animateTransform attributeName="transform" attributeType="XML" type="translate"
        begin=".2"
        dur="1s"
        values="0,6;0,-6;0,6"
        repeatCount="indefinite"/>
    </path>
    <path class="bar" d="M58.3,58.8L58.3,58.8c-1.1,0-2-0.9-2-2V43.2c0-1.1,0.9-2,2-2h0c1.1,0,2,0.9,2,2v13.7
		C60.3,57.9,59.4,58.8,58.3,58.8z">
      <animateTransform attributeName="transform" attributeType="XML" type="translate"
        begin=".3"
        dur="1s"
        values="0,6;0,-6;0,6"
        repeatCount="indefinite"/>
    </path>
    <path class="bar" d="M66.5,58.8L66.5,58.8c-1.1,0-2-0.9-2-2V43.2c0-1.1,0.9-2,2-2l0,0c1.1,0,2,0.9,2,2v13.7
		C68.5,57.9,67.6,58.8,66.5,58.8z">
      <animateTransform attributeName="transform" attributeType="XML" type="translate"
        begin=".4"
        dur="1s"
        values="0,6;0,-6;0,6"
        repeatCount="indefinite"/>
    </path>
  </g>
</svg>
