<?xml version="1.0" encoding="utf-8"?>
<svg version="1.1" id="Layer_1" xmlns="http://www.w3.org/2000/svg" xmlns:xlink="http://www.w3.org/1999/xlink" x="0px" y="0px"
	 viewBox="0 0 100 100" style="enable-background:new 0 0 100 100;" xml:space="preserve">
<style type="text/css">
	.st0{filter:url(#Adobe_OpacityMaskFilter);}
	.st1{fill:#010101;}
	.st2{mask:url(#aflex_x5F_logo_1_);fill:#DA95AD;}
	.st3{fill:#FFFFFF;}
	.st4{fill:none;stroke:#DA94AC;stroke-width:2.8304;stroke-linecap:round;stroke-linejoin:bevel;stroke-dasharray:0.2791,9.302;}
</style>
<defs>
	<filter id="Adobe_OpacityMaskFilter" filterUnits="userSpaceOnUse" x="10.8" y="10.8" width="78.3" height="78.3">
		<feFlood  style="flood-color:white;flood-opacity:1" result="back"/>
		<feBlend  in="SourceGraphic" in2="back" mode="normal"/>
	</filter>
</defs>
<mask maskUnits="userSpaceOnUse" x="10.8" y="10.8" width="78.3" height="78.3" id="aflex_x5F_logo_1_">
	<g class="st0">
		<g>
			<g>
				<path class="st1" d="M52.1,46.6c0,0-11.8-2.5-23.3,10.7c-10.5,12,2.9,21.3,19.2,12.5C48.1,69.8,34.9,66.5,52.1,46.6z"/>
			</g>
			<path class="st1" d="M59.2,25.3c3.9-0.5,22.7-5,11.8,10.3c0,0-4.1,5.5-4.5,6c-2.1,2.6-2.4,3.2-2.6,3.6c-0.7,1.1-3,5.4,4.2,3.8
				c7.1-1.5,9.6-2.2,9.7-2.3c-0.5,0.8-12.1,18.9-12.1,18.9l-13.8,0.5c-7.9-1.5-6.9-4.8-6.7-6c0.7-3.2,9.6-15.7,9.6-15.7
				c3.8-7.8-7.6-4.5-10-3.9c-3.1,0.7-14.2,4.9-14.2,4.9l8.6-17.2"/>
		</g>
	</g>
</mask>
<circle id="aflex_x5F_logo" class="st2" cx="50" cy="50" r="39.2"/>
<g>
	<path class="st3" d="M1.5,50c0,15.6,7.4,29.5,18.8,38.3V11.7C8.9,20.5,1.5,34.4,1.5,50z">
		<animate attributeName="opacity" values="0;1;0" dur="3s" repeatCount="indefinite" begin="0s" />
	</path>
	<path class="st3" d="M20.3,11.7v76.7c5.7,4.4,12.4,7.6,19.8,9.1v-95C32.8,4,26,7.2,20.3,11.7z">
		<animate attributeName="opacity" values="0;1;0" dur="3s" repeatCount="indefinite" begin="0.2s" />
	</path>
	<path class="st3" d="M50,1.5c-3.4,0-6.7,0.4-9.9,1v95c3.2,0.7,6.5,1,9.9,1s6.7-0.4,9.9-1v-95C56.7,1.9,53.4,1.5,50,1.5z">
		<animate attributeName="opacity" values="0;1;0" dur="3s" repeatCount="indefinite" begin="0.4s" />
	</path>
	<path class="st3" d="M59.9,2.5v95c7.3-1.5,14.1-4.7,19.8-9.1V11.7C74,7.2,67.2,4,59.9,2.5z">
		<animate attributeName="opacity" values="0;1;0" dur="3s" repeatCount="indefinite" begin="0.6s" />
	</path>
	<path class="st3" d="M79.7,11.7v76.7C91.1,79.5,98.5,65.6,98.5,50C98.5,34.4,91.1,20.5,79.7,11.7z">
		<animate attributeName="opacity" values="0;1;0" dur="3s" repeatCount="indefinite" begin="0.8s" />
	</path>
</g>
<g id="dash">
	<circle class="st4" cx="50" cy="50" r="45.8">
		<animateTransform attributeName="transform" attributeType="XML" type="rotate" from="0 50 50" to="360 50 50" dur="10s" repeatCount="indefinite"/>
	</circle>
</g>
</svg>
